<svg width="659" height="459" viewBox="0 0 659 459" fill="none" xmlns="http://www.w3.org/2000/svg">
<path d="M329.5 458.442C511.326 458.442 658.725 450.637 658.725 441.01C658.725 431.382 511.326 423.577 329.5 423.577C147.674 423.577 0.274902 431.382 0.274902 441.01C0.274902 450.637 147.674 458.442 329.5 458.442Z" fill="#F5F5F5"/>
<path d="M585.241 404.238C585.241 403.746 583.407 355.066 574.713 347.412C566.342 340.02 556.681 347.135 556.273 347.412L555.186 346.227C555.305 346.15 566.427 337.911 575.902 346.227C585.088 354.327 586.871 402.082 586.939 404.1L585.241 404.238Z" fill="#5C7AEA"/>
<path d="M586.005 413.817C585.75 411.43 580.011 355.297 603.392 330.934L604.666 331.935C581.777 355.759 587.686 413.093 587.686 413.663L586.005 413.817Z" fill="#5C7AEA"/>
<path d="M585.461 407.688L583.763 407.58C583.763 406.933 588.331 341.807 571.283 327.593L572.438 326.453C590.08 341.175 585.665 404.962 585.461 407.688Z" fill="#5C7AEA"/>
<path d="M587.686 407.642H585.988C585.988 405.84 586.565 363.521 599.877 356.606C601.154 355.857 602.61 355.397 604.123 355.266C605.636 355.135 607.162 355.336 608.571 355.851C616.637 358.931 620.627 371.852 620.797 372.406L619.099 372.807C619.099 372.684 615.176 360.01 607.875 357.268C606.701 356.845 605.432 356.685 604.175 356.803C602.918 356.921 601.712 357.313 600.658 357.946C588.246 364.414 587.703 407.211 587.686 407.642Z" fill="#5C7AEA"/>
<path d="M582.541 407.673L580.843 407.596C580.843 407.257 582.83 374.27 573.049 362.674C570.689 359.902 568.159 358.593 565.493 358.747C559.126 359.147 553.777 367.617 553.726 367.71L552.232 366.955C552.469 366.57 558.107 357.715 565.357 357.207C568.617 357.007 571.674 358.516 574.391 361.734C584.562 373.793 582.626 406.302 582.541 407.673Z" fill="#5C7AEA"/>
<path d="M584.375 412.169C584.103 408.966 577.94 333.475 588.806 320.124L590.182 321.048C579.672 333.922 585.988 411.276 586.056 412.061L584.375 412.169Z" fill="#5C7AEA"/>
<path d="M611.458 363.613C611.458 363.613 604.955 365.785 606.89 370.913C608.826 376.041 629.389 384.496 629.389 384.496C629.389 384.496 637.997 377.335 630.085 365.708C622.172 354.081 611.628 359.948 611.458 363.613Z" fill="#5C7AEA"/>
<path opacity="0.2" d="M611.458 363.613C611.458 363.613 604.955 365.785 606.89 370.913C608.826 376.041 629.389 384.496 629.389 384.496C629.389 384.496 637.997 377.335 630.085 365.708C622.172 354.081 611.628 359.948 611.458 363.613Z" fill="white"/>
<path d="M583.186 353.849C583.186 353.849 590.114 353.588 590.505 358.993C590.895 364.399 575.511 379.383 575.511 379.383C575.511 379.383 564.525 375.779 566.885 362.273C569.246 348.767 581.471 350.508 583.186 353.849Z" fill="#5C7AEA"/>
<path opacity="0.2" d="M583.186 353.849C583.186 353.849 590.114 353.588 590.505 358.993C590.895 364.399 575.511 379.383 575.511 379.383C575.511 379.383 564.525 375.779 566.885 362.273C569.246 348.767 581.471 350.508 583.186 353.849Z" fill="white"/>
<path d="M577.328 327.962C577.328 327.962 581.947 327.516 581.573 324.975C581.2 322.434 563.625 315.858 553.268 326.515C553.268 326.515 559.907 336.863 569.5 336.987C579.094 337.11 577.328 327.962 577.328 327.962Z" fill="#5C7AEA"/>
<path opacity="0.2" d="M577.328 327.962C577.328 327.962 581.947 327.516 581.573 324.975C581.2 322.434 563.625 315.858 553.268 326.515C553.268 326.515 559.907 336.863 569.5 336.987C579.094 337.11 577.328 327.962 577.328 327.962Z" fill="white"/>
<path d="M585.937 321.802C585.937 321.802 581.76 323.635 580.588 321.294C579.417 318.953 590.488 304.955 605.481 308.974C605.481 308.974 605.888 320.94 597.806 325.652C589.724 330.365 585.937 321.802 585.937 321.802Z" fill="#5C7AEA"/>
<path opacity="0.2" d="M585.937 321.802C585.937 321.802 581.76 323.635 580.588 321.294C579.417 318.953 590.488 304.955 605.481 308.974C605.481 308.974 605.888 320.94 597.806 325.652C589.724 330.365 585.937 321.802 585.937 321.802Z" fill="white"/>
<path d="M564.084 361.55C564.084 361.55 567.259 359.224 563.829 358.085C560.399 356.945 543.453 357.268 543.334 372.422C543.334 372.422 562.98 375.379 565.408 369.604C567.836 363.829 564.084 361.55 564.084 361.55Z" fill="#5C7AEA"/>
<path opacity="0.2" d="M564.084 361.55C564.084 361.55 567.259 359.224 563.829 358.085C560.399 356.945 543.453 357.268 543.334 372.422C543.334 372.422 562.98 375.379 565.408 369.604C567.836 363.829 564.084 361.55 564.084 361.55Z" fill="white"/>
<path d="M604.14 327.562C604.14 327.562 600.964 325.221 604.394 324.081C607.824 322.942 624.77 323.265 624.872 338.434C624.872 338.434 605.226 341.391 602.798 335.616C600.37 329.841 604.14 327.562 604.14 327.562Z" fill="#5C7AEA"/>
<path opacity="0.2" d="M604.14 327.562C604.14 327.562 600.964 325.221 604.394 324.081C607.824 322.942 624.77 323.265 624.872 338.434C624.872 338.434 605.226 341.391 602.798 335.616C600.37 329.841 604.14 327.562 604.14 327.562Z" fill="white"/>
<path d="M593.748 339.774C593.748 339.774 593.476 336.925 596.006 338.049C598.536 339.173 607.315 347.767 598.197 355.929C598.197 355.929 585.937 347.69 588.144 343.393C590.352 339.096 593.748 339.774 593.748 339.774Z" fill="#5C7AEA"/>
<path opacity="0.2" d="M593.748 339.774C593.748 339.774 593.476 336.925 596.006 338.049C598.536 339.173 607.315 347.767 598.197 355.929C598.197 355.929 585.937 347.69 588.144 343.393C590.352 339.096 593.748 339.774 593.748 339.774Z" fill="white"/>
<path d="M561.231 343.809C561.231 343.809 563.133 341.545 560.348 341.268C557.563 340.991 545.066 344.009 547.97 355.328C547.97 355.328 563.252 354.296 563.846 349.584C564.44 344.871 561.231 343.809 561.231 343.809Z" fill="#5C7AEA"/>
<path opacity="0.2" d="M561.231 343.809C561.231 343.809 563.133 341.545 560.348 341.268C557.563 340.991 545.066 344.009 547.97 355.328C547.97 355.328 563.252 354.296 563.846 349.584C564.44 344.871 561.231 343.809 561.231 343.809Z" fill="white"/>
<path d="M612.68 449.653H560.416L554.796 397.77H618.318L612.68 449.653Z" fill="#263238"/>
<path d="M621.086 392.042H551.994V403.484H621.086V392.042Z" fill="#263238"/>
<path opacity="0.2" d="M621.086 392.042H551.994V403.484H621.086V392.042Z" fill="white"/>
<path d="M440.715 457.832H283.09C280.828 457.866 278.584 457.463 276.507 456.65C274.429 455.837 272.567 454.632 271.043 453.116C269.518 451.6 268.368 449.806 267.666 447.855C266.965 445.905 266.73 443.841 266.976 441.801L307.728 19.6561C308.221 15.3176 310.448 11.2929 313.99 8.34215C317.531 5.39137 322.141 3.71874 326.949 3.64011H484.524C486.786 3.60164 489.032 4.00095 491.111 4.81143C493.191 5.62191 495.055 6.82494 496.582 8.34038C498.108 9.85583 499.261 11.6489 499.963 13.6001C500.665 15.5513 500.901 17.6158 500.655 19.6561L459.903 441.801C459.418 446.138 457.198 450.165 453.663 453.118C450.127 456.072 445.521 457.749 440.715 457.832V457.832Z" fill="#5C7AEA"/>
<path opacity="0.4" d="M440.715 457.832H283.09C280.828 457.866 278.584 457.463 276.507 456.65C274.429 455.837 272.567 454.632 271.043 453.116C269.518 451.6 268.368 449.806 267.666 447.855C266.965 445.905 266.73 443.841 266.976 441.801L307.728 19.6561C308.221 15.3176 310.448 11.2929 313.99 8.34215C317.531 5.39137 322.141 3.71874 326.949 3.64011H484.524C486.786 3.60164 489.032 4.00095 491.111 4.81143C493.191 5.62191 495.055 6.82494 496.582 8.34038C498.108 9.85583 499.261 11.6489 499.963 13.6001C500.665 15.5513 500.901 17.6158 500.655 19.6561L459.903 441.801C459.418 446.138 457.198 450.165 453.663 453.118C450.127 456.072 445.521 457.749 440.715 457.832V457.832Z" fill="white"/>
<path d="M423.735 457.832H266.11C263.848 457.866 261.604 457.463 259.527 456.65C257.449 455.837 255.587 454.632 254.063 453.116C252.538 451.6 251.388 449.806 250.686 447.855C249.985 445.905 249.75 443.841 249.996 441.801L290.748 19.6561C291.241 15.3176 293.468 11.2929 297.01 8.34215C300.551 5.39137 305.161 3.71874 309.969 3.64011H467.544C469.806 3.60164 472.052 4.00095 474.131 4.81143C476.211 5.62191 478.076 6.82494 479.602 8.34038C481.128 9.85583 482.281 11.6489 482.983 13.6001C483.685 15.5513 483.921 17.6158 483.675 19.6561L442.923 441.801C442.438 446.138 440.218 450.165 436.683 453.118C433.147 456.072 428.541 457.749 423.735 457.832V457.832Z" fill="#263238"/>
<path d="M423.735 457.832H266.11C263.848 457.866 261.604 457.463 259.527 456.65C257.449 455.837 255.587 454.632 254.063 453.116C252.538 451.6 251.388 449.806 250.686 447.855C249.985 445.905 249.75 443.841 249.996 441.801L290.748 19.6561C291.241 15.3176 293.468 11.2929 297.01 8.34215C300.551 5.39137 305.161 3.71874 309.969 3.64011H467.544C469.806 3.60164 472.052 4.00095 474.131 4.81143C476.211 5.62191 478.076 6.82494 479.602 8.34038C481.128 9.85583 482.281 11.6489 482.983 13.6001C483.685 15.5513 483.921 17.6158 483.675 19.6561L442.923 441.801C442.438 446.138 440.218 450.165 436.683 453.118C433.147 456.072 428.541 457.749 423.735 457.832V457.832Z" fill="#5C7AEA"/>
<path d="M477.239 18.9323L436.487 441.878C436.148 445.358 433.754 448.038 431.088 448.038H260.201C257.756 448.038 256.16 445.558 256.465 442.371L297.404 18.3779C297.676 15.6059 299.459 13.1881 301.581 13.1881H344.286C345.491 13.1881 346.493 14.2199 346.799 15.6983L348.022 21.3963C348.327 22.9363 349.329 23.8911 350.535 23.8911H423.243C423.952 23.7957 424.614 23.5123 425.145 23.0766C425.677 22.641 426.055 22.0724 426.231 21.4425L428.558 15.7137C428.73 15.0741 429.104 14.4942 429.635 14.0454C430.166 13.5966 430.831 13.2986 431.546 13.1881H473.64C475.932 13.1881 477.528 15.8523 477.239 18.9323Z" fill="#263238"/>
<path d="M475.236 39.6145L440.223 402.515H260.303L295.316 39.6145H475.236Z" fill="#5C7AEA"/>
<path opacity="0.6" d="M316.048 30.2359H318.273L318.646 26.3551H316.422L316.048 30.2359Z" fill="white"/>
<path opacity="0.6" d="M312.415 30.2359H314.639L315.148 25.0615H312.924L312.415 30.2359Z" fill="white"/>
<path opacity="0.6" d="M308.798 30.2359H311.022L311.65 23.7679H309.426L308.798 30.2359Z" fill="white"/>
<path opacity="0.6" d="M305.181 30.2359H307.405L308.152 22.4743H305.928L305.181 30.2359Z" fill="white"/>
<path opacity="0.6" d="M455.912 28.8191H454.588L454.978 24.9383H456.286L455.912 28.8191Z" fill="white"/>
<path opacity="0.6" d="M456.677 30.2359H467.187L467.832 23.5215H457.339L456.677 30.2359Z" fill="white"/>
<path opacity="0.6" d="M387.738 13.7426C387.568 15.529 386.328 16.9766 384.953 16.9766C383.578 16.9766 382.627 15.529 382.796 13.7426C382.966 11.9562 384.223 10.5085 385.581 10.5085C386.939 10.5085 387.907 11.9562 387.738 13.7426Z" fill="#263238"/>
<path opacity="0.6" d="M392.73 13.7425C392.628 14.8821 391.83 15.8061 390.947 15.8061C390.064 15.8061 389.47 14.8821 389.571 13.7425C389.673 12.6029 390.488 11.6635 391.354 11.6635C392.22 11.6635 392.849 12.6029 392.73 13.7425Z" fill="#263238"/>
<path opacity="0.7" d="M475.236 39.6145L470.379 89.9571L469.547 98.6427L465.659 138.975L465.048 145.243L459.529 202.423L458.935 208.691L453.637 263.592L452.873 271.492L440.24 402.515H260.303L295.316 39.6145H475.236Z" fill="white"/>
<path d="M303.517 129.104L298.746 137.05L308.288 142.548L303.517 129.104Z" fill="#5C7AEA"/>
<path d="M317.441 287.986L323.587 281.78L315.386 273.464L317.441 287.986Z" fill="#5C7AEA"/>
<path d="M388.009 54.5679L387.551 44.5733L377.55 48.4233L388.009 54.5679Z" fill="#5C7AEA"/>
<path d="M286.282 284.151L281.528 292.082L291.054 297.58L286.282 284.151Z" fill="#5C7AEA"/>
<path d="M292.089 250.102L288.489 258.726L281.086 253.028L287.029 243.757L292.089 250.102Z" fill="#5C7AEA"/>
<path d="M366.156 372.501L373.78 373.117L372.829 384.112L363.779 381.063L366.156 372.501Z" fill="#5C7AEA"/>
<path d="M304.196 185.868L308.967 187.085C308.967 187.085 301.819 193.245 305.147 198.081C308.475 202.916 302.77 207.243 302.77 207.243L298.474 203.578C299.586 202.428 300.346 201.034 300.68 199.535C301.014 198.035 300.909 196.483 300.376 195.031C298.474 190.15 304.196 185.868 304.196 185.868Z" fill="#5C7AEA"/>
<path d="M369.246 151.126L374.018 152.342C374.018 152.342 366.869 158.502 370.197 163.338C373.525 168.174 367.82 172.501 367.82 172.501L363.626 168.836C364.733 167.683 365.491 166.289 365.825 164.791C366.158 163.292 366.056 161.741 365.528 160.289C363.626 155.392 369.246 151.126 369.246 151.126Z" fill="#5C7AEA"/>
<path d="M304.672 93.1911L300.291 101.492L310.071 106.235L304.672 93.1911Z" fill="#5C7AEA"/>
<path d="M390.268 97.4107L385.887 105.711L395.667 110.454L390.268 97.4107Z" fill="#5C7AEA"/>
<path d="M349.023 84.2283L351.672 74.8035L341.297 73.2789L349.023 84.2283Z" fill="#5C7AEA"/>
<path d="M347.054 121.727L348.446 112.102L356.851 114.659L353.387 125.808L347.054 121.727Z" fill="#5C7AEA"/>
<path d="M446.896 107.852L448.288 98.2269L456.676 100.783L453.213 111.933L446.896 107.852Z" fill="#5C7AEA"/>
<path d="M439.917 164.585L441.31 154.96L449.715 157.517L446.251 168.667L439.917 164.585Z" fill="#5C7AEA"/>
<path d="M416.264 152.666L411.442 153.359C411.442 153.359 416.807 144.75 412.478 141.393C408.148 138.036 412.562 131.737 412.562 131.737L417.521 133.57C417.521 133.57 414.753 138.544 417.741 142.456C420.73 146.367 416.264 152.666 416.264 152.666Z" fill="#5C7AEA"/>
<path d="M376.174 266.811L371.403 274.757L380.929 280.255L376.174 266.811Z" fill="#5C7AEA"/>
<path d="M346.442 297.58L341.671 305.526L351.197 311.024L346.442 297.58Z" fill="#5C7AEA"/>
<path d="M400.388 229.065L408.012 229.666L407.061 240.677L398.01 237.612L400.388 229.065Z" fill="#5C7AEA"/>
<path d="M428.88 321.835L436.487 322.436L435.536 333.431L426.486 330.382L428.88 321.835Z" fill="#5C7AEA"/>
<path d="M391.253 331.691L396.024 332.923C396.024 332.923 388.875 339.083 392.204 343.919C395.532 348.754 389.826 353.159 389.826 353.159L385.547 349.493C386.674 348.32 387.439 346.897 387.764 345.369C388.089 343.841 387.963 342.262 387.398 340.792C385.547 335.972 391.253 331.691 391.253 331.691Z" fill="#5C7AEA"/>
<path d="M433.329 287.539L430.323 288.432C430.323 288.432 431.614 280.286 427.878 277.468C424.143 274.649 425.433 268.659 425.433 268.659L429.169 270.045C428.927 272.92 429.791 275.782 431.614 278.145C434.602 281.549 433.329 287.539 433.329 287.539Z" fill="#5C7AEA"/>
<path d="M435.418 68.4279L432.412 69.3365C432.412 69.3365 433.703 61.1899 429.967 58.3717C426.231 55.5535 427.505 49.5629 427.505 49.5629L431.241 50.9489C431.009 53.8255 431.879 56.6864 433.703 59.0493C436.64 62.4373 435.418 68.4279 435.418 68.4279Z" fill="#5C7AEA"/>
<path d="M317.169 377.429L312.686 379.77C312.686 379.77 316.082 369.621 311.141 367.896C306.2 366.172 309.205 358.564 309.205 358.564H314.299C314.299 358.564 312.686 364.324 316.371 367.065C320.055 369.806 317.169 377.429 317.169 377.429Z" fill="#5C7AEA"/>
<path d="M315.216 54.5679C315.216 57.0935 313.62 59.1879 311.65 59.1879C309.68 59.1879 308.067 57.1397 308.067 54.5679C308.067 51.9961 309.664 49.9479 311.65 49.9479C313.637 49.9479 315.216 52.0423 315.216 54.5679Z" fill="#5C7AEA"/>
<path d="M354.779 230.759C354.779 233.3 353.081 235.379 351.197 235.379C349.312 235.379 347.631 233.331 347.631 230.759C347.631 228.187 349.227 226.139 351.197 226.139C353.166 226.139 354.779 228.234 354.779 230.759Z" fill="#5C7AEA"/>
<path d="M448.39 217.654C450.36 217.654 451.956 215.599 451.956 213.065C451.956 210.53 450.36 208.475 448.39 208.475C446.421 208.475 444.824 210.53 444.824 213.065C444.824 215.599 446.421 217.654 448.39 217.654Z" fill="#5C7AEA"/>
<path d="M465.829 57.9097C465.829 60.4507 464.233 62.5297 462.246 62.5297C460.259 62.5297 458.68 60.4815 458.68 57.9097C458.68 55.3379 460.276 53.2897 462.246 53.2897C464.216 53.2897 465.829 55.3841 465.829 57.9097Z" fill="#5C7AEA"/>
<path d="M277.962 342.887L281.749 334.124L271.679 330.505L277.962 342.887Z" fill="#5C7AEA"/>
<path d="M420.458 385.606L418.455 395.293L428.897 395.647L420.458 385.606Z" fill="#5C7AEA"/>
<path d="M273.785 392.798C273.598 390.272 275.058 388.039 277.028 387.824C278.998 387.608 280.73 389.456 280.9 391.982C281.069 394.507 279.626 396.725 277.656 396.956C275.687 397.187 273.955 395.308 273.785 392.798Z" fill="#5C7AEA"/>
<g opacity="0.5">
<path opacity="0.5" d="M303.517 129.104L298.746 137.05L308.288 142.548L303.517 129.104Z" fill="white"/>
<path opacity="0.5" d="M317.441 287.986L323.587 281.78L315.386 273.464L317.441 287.986Z" fill="white"/>
<path opacity="0.5" d="M388.009 54.5679L387.551 44.5733L377.55 48.4233L388.009 54.5679Z" fill="white"/>
<path opacity="0.5" d="M286.282 284.151L281.528 292.082L291.054 297.58L286.282 284.151Z" fill="white"/>
<path opacity="0.5" d="M292.089 250.102L288.49 258.726L281.086 253.028L287.029 243.757L292.089 250.102Z" fill="white"/>
<path opacity="0.5" d="M366.156 372.501L373.78 373.117L372.829 384.113L363.779 381.063L366.156 372.501Z" fill="white"/>
<path opacity="0.5" d="M304.196 185.868L308.967 187.085C308.967 187.085 301.819 193.245 305.147 198.081C308.475 202.916 302.77 207.243 302.77 207.243L298.474 203.578C299.586 202.428 300.346 201.034 300.68 199.535C301.014 198.035 300.909 196.483 300.376 195.031C298.474 190.15 304.196 185.868 304.196 185.868Z" fill="white"/>
<path opacity="0.5" d="M369.246 151.126L374.018 152.342C374.018 152.342 366.869 158.502 370.197 163.338C373.525 168.174 367.82 172.501 367.82 172.501L363.626 168.836C364.733 167.683 365.491 166.289 365.825 164.791C366.158 163.292 366.056 161.741 365.528 160.289C363.626 155.392 369.246 151.126 369.246 151.126Z" fill="white"/>
<path opacity="0.5" d="M304.672 93.1911L300.291 101.492L310.071 106.235L304.672 93.1911Z" fill="white"/>
<path opacity="0.5" d="M390.268 97.4107L385.887 105.711L395.667 110.454L390.268 97.4107Z" fill="white"/>
<path opacity="0.5" d="M349.023 84.2283L351.672 74.8035L341.297 73.2789L349.023 84.2283Z" fill="white"/>
<path opacity="0.5" d="M347.054 121.727L348.446 112.102L356.851 114.659L353.387 125.808L347.054 121.727Z" fill="white"/>
<path opacity="0.5" d="M446.896 107.852L448.288 98.2269L456.676 100.783L453.213 111.933L446.896 107.852Z" fill="white"/>
<path opacity="0.5" d="M439.917 164.585L441.31 154.96L449.715 157.517L446.251 168.667L439.917 164.585Z" fill="white"/>
<path opacity="0.5" d="M416.264 152.666L411.442 153.359C411.442 153.359 416.807 144.75 412.478 141.393C408.148 138.036 412.562 131.737 412.562 131.737L417.521 133.57C417.521 133.57 414.753 138.544 417.741 142.456C420.73 146.367 416.264 152.666 416.264 152.666Z" fill="white"/>
<path opacity="0.5" d="M376.174 266.811L371.403 274.757L380.929 280.255L376.174 266.811Z" fill="white"/>
<path opacity="0.5" d="M346.442 297.58L341.671 305.526L351.197 311.024L346.442 297.58Z" fill="white"/>
<path opacity="0.5" d="M400.388 229.065L408.012 229.666L407.061 240.677L398.01 237.612L400.388 229.065Z" fill="white"/>
<path opacity="0.5" d="M428.88 321.835L436.487 322.435L435.536 333.431L426.486 330.382L428.88 321.835Z" fill="white"/>
<path opacity="0.5" d="M391.253 331.691L396.024 332.923C396.024 332.923 388.875 339.083 392.204 343.918C395.532 348.754 389.826 353.159 389.826 353.159L385.547 349.493C386.674 348.32 387.439 346.897 387.764 345.369C388.089 343.841 387.963 342.262 387.398 340.792C385.547 335.972 391.253 331.691 391.253 331.691Z" fill="white"/>
<path opacity="0.5" d="M433.329 287.539L430.323 288.432C430.323 288.432 431.614 280.286 427.878 277.468C424.143 274.649 425.433 268.659 425.433 268.659L429.169 270.045C428.927 272.92 429.791 275.782 431.614 278.145C434.602 281.549 433.329 287.539 433.329 287.539Z" fill="white"/>
<path opacity="0.5" d="M435.418 68.4279L432.412 69.3365C432.412 69.3365 433.703 61.1899 429.967 58.3717C426.231 55.5535 427.505 49.5629 427.505 49.5629L431.241 50.9489C431.009 53.8255 431.879 56.6865 433.703 59.0493C436.64 62.4373 435.418 68.4279 435.418 68.4279Z" fill="white"/>
<path opacity="0.5" d="M317.169 377.429L312.686 379.77C312.686 379.77 316.082 369.621 311.141 367.896C306.2 366.172 309.205 358.564 309.205 358.564H314.299C314.299 358.564 312.686 364.323 316.371 367.065C320.055 369.806 317.169 377.429 317.169 377.429Z" fill="white"/>
<path opacity="0.5" d="M315.216 54.5679C315.216 57.0935 313.62 59.1879 311.65 59.1879C309.68 59.1879 308.067 57.1397 308.067 54.5679C308.067 51.9961 309.664 49.9479 311.65 49.9479C313.637 49.9479 315.216 52.0423 315.216 54.5679Z" fill="white"/>
<path opacity="0.5" d="M354.779 230.759C354.779 233.3 353.081 235.379 351.197 235.379C349.312 235.379 347.631 233.331 347.631 230.759C347.631 228.187 349.227 226.139 351.197 226.139C353.166 226.139 354.779 228.234 354.779 230.759Z" fill="white"/>
<path opacity="0.5" d="M448.39 217.654C450.36 217.654 451.956 215.599 451.956 213.065C451.956 210.53 450.36 208.475 448.39 208.475C446.421 208.475 444.824 210.53 444.824 213.065C444.824 215.599 446.421 217.654 448.39 217.654Z" fill="white"/>
<path opacity="0.5" d="M465.829 57.9097C465.829 60.4507 464.233 62.5297 462.246 62.5297C460.259 62.5297 458.68 60.4815 458.68 57.9097C458.68 55.3379 460.276 53.2897 462.246 53.2897C464.216 53.2897 465.829 55.3841 465.829 57.9097Z" fill="white"/>
<path opacity="0.5" d="M277.962 342.887L281.749 334.124L271.679 330.505L277.962 342.887Z" fill="white"/>
<path opacity="0.5" d="M420.458 385.606L418.455 395.293L428.897 395.647L420.458 385.606Z" fill="white"/>
<path opacity="0.5" d="M273.785 392.798C273.598 390.272 275.058 388.04 277.028 387.824C278.998 387.608 280.73 389.456 280.9 391.982C281.069 394.508 279.626 396.725 277.656 396.956C275.687 397.187 273.955 395.308 273.785 392.798Z" fill="white"/>
</g>
<path d="M388.366 342.024H318.748C316.41 342.092 314.082 341.706 311.922 340.891C309.762 340.077 307.819 338.852 306.224 337.3C304.628 335.748 303.418 333.905 302.672 331.893C301.927 329.882 301.665 327.749 301.904 325.639V325.639C302.473 321.149 304.836 317.003 308.547 313.987C312.258 310.97 317.059 309.292 322.042 309.268H391.66C393.997 309.201 396.323 309.587 398.481 310.4C400.64 311.214 402.582 312.437 404.177 313.988C405.772 315.538 406.984 317.379 407.73 319.389C408.476 321.398 408.74 323.529 408.504 325.639V325.639C407.939 330.131 405.578 334.281 401.866 337.3C398.155 340.32 393.352 342.001 388.366 342.024V342.024Z" fill="#5C7AEA"/>
<path d="M313.705 87.1235C313.742 85.8715 314.3 84.6786 315.267 83.7845C316.234 82.8903 317.538 82.3612 318.918 82.3033C319.55 82.2805 320.179 82.4027 320.746 82.6583C321.313 82.914 321.799 83.2951 322.161 83.7663L321.244 84.6133C320.978 84.2623 320.62 83.977 320.202 83.7834C319.784 83.5897 319.319 83.4939 318.85 83.5045C317.821 83.5546 316.85 83.9552 316.132 84.6262C315.415 85.2971 315.003 86.1889 314.978 87.1235C314.876 87.5535 314.879 87.9989 314.988 88.4276C315.097 88.8564 315.309 89.258 315.61 89.6037C315.91 89.9495 316.29 90.2308 316.724 90.4277C317.158 90.6245 317.635 90.732 318.12 90.7425C318.621 90.7395 319.116 90.6357 319.568 90.4387C320.02 90.2416 320.419 89.9562 320.735 89.6029L321.482 90.4653C321.052 90.9431 320.511 91.3289 319.897 91.5951C319.284 91.8613 318.613 92.0014 317.933 92.0053C315.233 91.9437 313.416 89.9109 313.705 87.1235Z" fill="#5C7AEA"/>
<path d="M322.738 87.1236C322.78 85.8702 323.342 84.6772 324.311 83.7834C325.281 82.8896 326.587 82.361 327.968 82.3033C328.618 82.3136 329.257 82.4538 329.84 82.7139C330.423 82.9739 330.935 83.3475 331.341 83.8079C331.746 84.2683 332.035 84.8042 332.186 85.3773C332.336 85.9505 332.346 86.5467 332.213 87.1236C332.176 88.3755 331.618 89.5684 330.651 90.4625C329.684 91.3567 328.38 91.8859 327 91.9438C326.35 91.933 325.711 91.7927 325.127 91.5327C324.544 91.2728 324.031 90.8996 323.624 90.4396C323.217 89.9796 322.927 89.4441 322.774 88.871C322.621 88.2979 322.609 87.7013 322.738 87.1236V87.1236ZM330.94 87.1236C331.045 86.6969 331.045 86.2545 330.94 85.8279C330.835 85.4012 330.628 85.0009 330.333 84.6552C330.037 84.3096 329.662 84.0273 329.233 83.8284C328.803 83.6295 328.331 83.5189 327.849 83.5045C326.825 83.5587 325.86 83.9614 325.149 84.6324C324.438 85.3033 324.032 86.1929 324.012 87.1236C323.907 87.5514 323.907 87.9951 324.013 88.4228C324.119 88.8506 324.328 89.2518 324.625 89.5976C324.922 89.9435 325.299 90.2255 325.731 90.4235C326.162 90.6214 326.636 90.7304 327.119 90.7426C328.141 90.6847 329.101 90.2803 329.809 89.6098C330.517 88.9393 330.92 88.0517 330.94 87.1236V87.1236Z" fill="#5C7AEA"/>
<path d="M342.333 82.4111L341.382 91.8359H340.33L335.677 84.8135L334.981 91.8359H333.707L334.658 82.4111H335.694L340.347 89.4335L341.06 82.4111H342.333Z" fill="#5C7AEA"/>
<path d="M350.721 87.0619H351.944L351.587 90.7425C350.619 91.5117 349.377 91.9382 348.089 91.9437C347.437 91.9379 346.794 91.8011 346.207 91.5429C345.62 91.2848 345.103 90.9118 344.694 90.4509C344.284 89.9899 343.993 89.4525 343.84 88.8771C343.687 88.3018 343.677 87.7029 343.81 87.1235C343.852 85.865 344.419 84.6678 345.396 83.7733C346.372 82.8787 347.687 82.3534 349.074 82.3033C349.714 82.277 350.352 82.3972 350.927 82.6528C351.503 82.9085 351.999 83.2914 352.368 83.7663L351.485 84.5979C351.199 84.2485 350.825 83.9668 350.393 83.7765C349.962 83.5862 349.486 83.4929 349.006 83.5045C347.968 83.5433 346.985 83.9389 346.256 84.611C345.528 85.2831 345.109 86.1814 345.084 87.1235C344.999 87.5543 345.016 87.9965 345.134 88.4208C345.252 88.8451 345.469 89.2416 345.769 89.5841C346.07 89.9265 346.447 90.2069 346.877 90.4067C347.306 90.6064 347.777 90.7209 348.259 90.7425C349.03 90.7549 349.785 90.5445 350.416 90.1419L350.721 87.0619Z" fill="#5C7AEA"/>
<path d="M359.874 91.8359L358.176 88.9407H357.615H355.408L355.119 91.8051H353.846L354.797 82.3803H358.277C358.758 82.3233 359.247 82.3707 359.703 82.5187C360.159 82.6667 360.57 82.911 360.902 83.2314C361.234 83.5518 361.477 83.9392 361.611 84.3615C361.745 84.7839 361.766 85.2291 361.673 85.6605C361.653 86.3027 361.427 86.9256 361.023 87.4534C360.619 87.9811 360.055 88.3909 359.398 88.6327L361.198 91.8051L359.874 91.8359ZM360.468 85.6759C360.604 84.3361 359.823 83.5661 358.193 83.5661H356.019L355.595 87.8011H357.768C358.101 87.8376 358.439 87.8108 358.76 87.7222C359.08 87.6336 359.377 87.4853 359.632 87.2868C359.886 87.0882 360.091 86.8438 360.235 86.569C360.379 86.2943 360.459 85.9954 360.468 85.6913V85.6759Z" fill="#5C7AEA"/>
<path d="M369.111 89.4797H364.373L363.151 91.8359H361.928L366.92 82.4111H368.177L371.284 91.8359H369.943L369.111 89.4797ZM368.771 88.4017L367.311 83.7817L364.916 88.4017H368.771Z" fill="#5C7AEA"/>
<path d="M374.68 83.6123H371.624L371.742 82.4419H379.129L379.01 83.6123H375.953L375.121 91.8667H373.814L374.68 83.6123Z" fill="#5C7AEA"/>
<path d="M379.74 87.7703L380.283 82.4111H381.557L381.014 87.7087C380.81 89.8032 381.625 90.7888 383.221 90.7888C384.817 90.7888 385.853 89.8494 386.057 87.7087L386.6 82.4111H387.823L387.296 87.7703C387.008 90.4961 385.445 91.9438 383.102 91.9438C380.759 91.9438 379.468 90.4961 379.74 87.7703Z" fill="#5C7AEA"/>
<path d="M390.455 82.4111H391.728L390.896 90.6655H395.718L395.617 91.8359H389.504L390.455 82.4111Z" fill="#5C7AEA"/>
<path d="M403.037 89.4797H398.299L397.077 91.8359H395.769L400.761 82.4111H402.018L405.125 91.8359H403.784L403.037 89.4797ZM402.697 88.4017L401.237 83.7817L398.86 88.4017H402.697Z" fill="#5C7AEA"/>
<path d="M408.606 83.6123H405.55L405.669 82.4419H413.055L412.868 83.6123H409.812L408.98 91.8667H407.774L408.606 83.6123Z" fill="#5C7AEA"/>
<path d="M414.447 82.4111H415.721L414.77 91.8359H413.496L414.447 82.4111Z" fill="#5C7AEA"/>
<path d="M417.198 87.1236C417.247 85.8699 417.814 84.6789 418.786 83.7862C419.758 82.8935 421.063 82.3643 422.445 82.3033C423.094 82.3136 423.733 82.4538 424.316 82.7139C424.899 82.9739 425.412 83.3475 425.817 83.8079C426.223 84.2683 426.511 84.8042 426.662 85.3773C426.813 85.9505 426.822 86.5467 426.69 87.1236C426.653 88.3755 426.095 89.5684 425.128 90.4625C424.161 91.3567 422.856 91.8859 421.477 91.9438C420.826 91.9352 420.184 91.7965 419.599 91.5376C419.013 91.2786 418.498 90.9057 418.089 90.4454C417.68 89.9851 417.389 89.4488 417.235 88.8747C417.081 88.3005 417.068 87.7026 417.198 87.1236ZM425.416 87.1236C425.518 86.6972 425.516 86.2558 425.41 85.8302C425.304 85.4047 425.096 85.0055 424.802 84.6605C424.507 84.3156 424.133 84.0334 423.705 83.8337C423.277 83.634 422.807 83.5216 422.326 83.5045C421.3 83.5584 420.334 83.9607 419.619 84.6312C418.905 85.3018 418.495 86.1915 418.472 87.1236C418.369 87.5524 418.372 87.9964 418.48 88.4241C418.588 88.8517 418.799 89.2525 419.097 89.598C419.396 89.9435 419.774 90.2251 420.206 90.423C420.638 90.6208 421.112 90.7299 421.596 90.7426C422.617 90.6847 423.578 90.2803 424.285 89.6098C424.993 88.9393 425.397 88.0517 425.416 87.1236V87.1236Z" fill="#5C7AEA"/>
<path d="M436.793 82.4111L435.859 91.8359H434.806L430.154 84.8135L429.458 91.8359H428.15L429.101 82.4111H430.154L434.806 89.4335L435.502 82.4111H436.793Z" fill="#5C7AEA"/>
<path d="M437.829 90.7579L438.338 89.7723C438.703 90.1203 439.143 90.3959 439.631 90.5814C440.119 90.767 440.645 90.8586 441.174 90.8503C442.719 90.8503 443.449 90.2189 443.517 89.4027C443.755 87.1081 438.202 88.5557 438.559 85.0599C438.665 84.2641 439.11 83.5375 439.798 83.0342C440.486 82.531 441.363 82.2909 442.243 82.3649C443.25 82.34 444.235 82.634 445.028 83.1965L444.502 84.2745C443.827 83.7831 442.99 83.5119 442.125 83.5045C440.613 83.5045 439.9 84.1821 439.815 85.0445C439.578 87.3545 445.13 85.9069 444.79 89.3719C444.68 90.1737 444.226 90.9039 443.527 91.4052C442.829 91.9064 441.941 92.1385 441.055 92.0515C440.448 92.0458 439.85 91.9282 439.295 91.7058C438.74 91.4834 438.241 91.1609 437.829 90.7579V90.7579Z" fill="#5C7AEA"/>
<path d="M324.997 325.916H327.085L326.661 330.151C325.484 330.993 324.033 331.459 322.534 331.475C319.41 331.475 317.356 329.227 317.661 326.085C317.713 324.661 318.362 323.309 319.476 322.304C320.59 321.299 322.085 320.718 323.655 320.68C324.43 320.642 325.203 320.789 325.897 321.105C326.591 321.421 327.182 321.895 327.612 322.482L325.914 323.914C325.653 323.547 325.292 323.247 324.867 323.042C324.442 322.837 323.967 322.734 323.485 322.744C322.526 322.768 321.615 323.13 320.945 323.754C320.276 324.378 319.902 325.215 319.903 326.085C319.798 326.481 319.793 326.893 319.888 327.29C319.983 327.688 320.175 328.061 320.451 328.382C320.727 328.703 321.078 328.964 321.48 329.145C321.882 329.326 322.324 329.422 322.772 329.427C323.42 329.435 324.056 329.274 324.606 328.965L324.997 325.916Z" fill="white"/>
<path d="M329.666 320.865H331.958L330.906 331.306H328.613L329.666 320.865Z" fill="white"/>
<path d="M336.458 322.805L336.187 325.562H340.771L340.567 327.502H335.983L335.609 331.306H333.317L334.37 320.865H341.841L341.654 322.805H336.458Z" fill="white"/>
<path d="M345.305 322.82H342.129L342.333 320.865H350.959L350.755 322.82H347.597L346.731 331.306H344.456L345.305 322.82Z" fill="white"/>
<path d="M354.457 330.274L355.425 328.457C356.303 329.145 357.422 329.527 358.583 329.535C359.924 329.535 360.536 329.058 360.604 328.426C360.79 326.47 354.898 327.81 355.289 323.929C355.348 323.448 355.511 322.981 355.77 322.557C356.028 322.133 356.376 321.759 356.794 321.457C357.212 321.155 357.692 320.931 358.206 320.797C358.72 320.664 359.258 320.624 359.788 320.68C361.003 320.635 362.198 320.96 363.185 321.604L362.302 323.437C361.528 322.92 360.596 322.634 359.636 322.62C358.277 322.62 357.7 323.159 357.632 323.806C357.445 325.731 363.32 324.407 362.947 328.241C362.884 328.724 362.716 329.19 362.454 329.614C362.192 330.038 361.84 330.411 361.419 330.711C360.998 331.011 360.516 331.233 360 331.365C359.484 331.496 358.945 331.533 358.413 331.475C356.977 331.526 355.57 331.099 354.457 330.274V330.274Z" fill="white"/>
<path d="M372.014 329.366L371.81 331.306H364.152L365.205 320.865H372.676L372.49 322.805H367.277L367.056 325.069H371.641L371.454 326.948H366.869L366.614 329.366H372.014Z" fill="white"/>
<path d="M383.764 320.865L382.712 331.306H380.827L376.531 324.961L375.886 331.306H373.627L374.68 320.865H376.582L380.861 327.194L381.506 320.865H383.764Z" fill="white"/>
<path d="M387.958 322.82H384.783L384.987 320.865H393.613L393.409 322.82H390.251L389.385 331.306H387.109L387.958 322.82Z" fill="white"/>
<path d="M426.789 213.537C435.516 174.754 416.477 138.481 384.266 132.519C352.054 126.556 318.866 153.163 310.139 191.946C301.413 230.729 320.451 267.003 352.663 272.965C384.874 278.927 418.062 252.32 426.789 213.537Z" fill="#5C7AEA"/>
<path opacity="0.3" d="M426.789 213.537C435.516 174.754 416.477 138.481 384.266 132.519C352.054 126.556 318.866 153.163 310.139 191.946C301.413 230.729 320.451 267.003 352.663 272.965C384.874 278.927 418.062 252.32 426.789 213.537Z" fill="white"/>
<path d="M275.126 206.889L295.061 194.2L308.339 200.899L346.442 194.431L344.744 207.767L307.966 209.138C307.966 209.138 290.612 218.716 287.216 219.132C283.82 219.548 275.126 206.889 275.126 206.889Z" fill="#E4897B"/>
<path d="M427.794 201.761C427.709 202.654 427.607 203.563 427.505 204.456L331.211 211.124H330.532V208.352V197.157V192.306L332.57 191.936L425.841 174.472C428.045 183.422 428.704 192.628 427.794 201.761V201.761Z" fill="#5C7AEA"/>
<path opacity="0.2" d="M427.794 201.761C427.709 202.654 427.607 203.563 427.505 204.456L331.211 211.124H330.532V208.352V197.157V192.306L332.57 191.936L425.841 174.472C428.045 183.422 428.704 192.628 427.794 201.761V201.761Z" fill="black"/>
<path d="M326.202 191.751L332.773 190.642L330.956 214.743L323.621 213.896L326.202 191.751Z" fill="#5C7AEA"/>
<path opacity="0.5" d="M326.202 191.751L332.773 190.642L330.956 214.743L323.621 213.896L326.202 191.751Z" fill="white"/>
<path d="M228.432 168.528L228.703 168.497L228.686 168.466L228.72 168.451L228.703 168.389L228.432 168.528Z" fill="#263238"/>
<path d="M332.365 148.877L331.397 149.001L261.864 153.436L229.262 167.912L228.685 167.943L239.348 225.816L305.469 221.596L341.5 205.734L332.365 148.877Z" fill="#263238"/>
<path opacity="0.2" d="M237.091 172.008L239.961 174.103L243.493 173.133L242.185 176.259L244.274 179L240.606 178.846L238.382 181.495L237.414 178.276L233.933 177.167L237.006 175.35L237.091 172.008Z" fill="white"/>
<path opacity="0.2" d="M275.126 174.395V177.737L278.166 179.616L274.668 180.648L273.632 183.851L271.459 181.156L267.791 181.264L269.947 178.553L268.708 175.412L272.206 176.428L275.126 174.395Z" fill="white"/>
<path opacity="0.2" d="M276.671 210.323V213.665L279.711 215.544L276.23 216.591L275.194 219.794L273.021 217.099L269.336 217.192L271.493 214.481L270.253 211.34L273.751 212.372L276.671 210.323Z" fill="white"/>
<path opacity="0.2" d="M259.912 202.393L259.929 205.719L262.969 207.613L259.471 208.645L258.435 211.848L256.262 209.153L252.577 209.261L254.733 206.551L253.494 203.409L257.009 204.425L259.912 202.393Z" fill="white"/>
<path opacity="0.2" d="M278.098 200.113L278.115 202.069L279.881 203.178L277.843 203.778L277.232 205.657L275.958 204.086L273.802 204.133L275.075 202.562L274.345 200.714L276.4 201.314L278.098 200.113Z" fill="white"/>
<path opacity="0.2" d="M248.264 215.544V217.5L250.047 218.593L248.009 219.209L247.398 221.073L246.124 219.502L243.968 219.564L245.225 217.977L244.511 216.129L246.566 216.73L248.264 215.544Z" fill="white"/>
<path opacity="0.2" d="M244.308 196.648L244.325 198.604L246.091 199.698L244.053 200.314L243.442 202.192L242.168 200.606L240.029 200.668L241.285 199.082L240.555 197.249L242.61 197.85L244.308 196.648Z" fill="white"/>
<path opacity="0.2" d="M287.844 165.71V167.666L289.627 168.774L287.59 169.375L286.978 171.254L285.705 169.683L283.548 169.744L284.805 168.158L284.092 166.31L286.146 166.911L287.844 165.71Z" fill="white"/>
<path opacity="0.2" d="M250.013 181.449L252.475 185.268L257.331 185.591L254.088 188.887L255.243 193.168L250.794 191.397L246.651 193.722L247.143 189.333L243.425 186.469L248.179 185.53L250.013 181.449Z" fill="white"/>
<path opacity="0.2" d="M282.36 187.455L286.893 189.041L290.918 186.561L290.646 190.966L294.484 193.661L289.78 194.8L288.15 198.943L285.501 195.247L280.645 195.108L283.718 191.69L282.36 187.455Z" fill="white"/>
<path opacity="0.2" d="M292.87 205.734L295.333 209.553L300.189 209.877L296.946 213.172L298.1 217.454L293.652 215.683L289.508 217.993L290.001 213.604L286.282 210.755L291.037 209.815L292.87 205.734Z" fill="white"/>
<path opacity="0.2" d="M301.87 165.864L303.551 167.712L305.249 166.449L304.909 169.683L306.251 172.239L304.366 172.393L303.5 175.242L302.668 172.101L300.783 171.3L302.159 169.206L301.87 165.864Z" fill="white"/>
<path opacity="0.2" d="M321.55 165.032L321.906 168.374L323.655 170.006L321.974 171.346L321.771 174.626L320.395 172.116L318.51 172.532L319.342 169.637L318.375 166.603L320.276 167.327L321.55 165.032Z" fill="white"/>
<path opacity="0.2" d="M326.066 200.868L326.406 204.194L328.155 205.827L326.474 207.167L326.27 210.447L324.895 207.937L323.01 208.352L323.842 205.457L322.891 202.423L324.776 203.147L326.066 200.868Z" fill="white"/>
<path opacity="0.2" d="M316.676 194.338L317.016 197.665L318.765 199.297L317.084 200.637L316.88 203.932L315.505 201.407L313.637 201.823L314.452 198.927L313.484 195.894L315.386 196.617L316.676 194.338Z" fill="white"/>
<path opacity="0.2" d="M325.744 190.535L325.948 192.475L326.966 193.43L325.981 194.215L325.863 196.14L325.048 194.677L323.961 194.908L324.436 193.214L323.876 191.443L324.997 191.859L325.744 190.535Z" fill="white"/>
<path opacity="0.2" d="M312.075 208.475L312.279 210.431L313.297 211.386L312.313 212.156L312.194 214.096L311.379 212.618L310.292 212.864L310.767 211.17L310.207 209.384L311.311 209.815L312.075 208.475Z" fill="white"/>
<path opacity="0.2" d="M308.101 189.903L308.305 191.859L309.324 192.814L308.339 193.599L308.22 195.524L307.405 194.046L306.319 194.292L306.794 192.598L306.234 190.812L307.354 191.243L308.101 189.903Z" fill="white"/>
<path opacity="0.2" d="M327.17 155.284L327.374 157.24L328.393 158.195L327.408 158.965L327.306 160.905L326.491 159.427L325.387 159.658L325.863 157.979L325.302 156.193L326.423 156.624L327.17 155.284Z" fill="white"/>
<path opacity="0.2" d="M309.443 174.211L311.09 177.829L313.603 177.737L312.296 181.31L313.331 185.499L310.869 184.097L308.985 186.777L308.781 182.342L306.59 179.801L308.934 178.461L309.443 174.211Z" fill="white"/>
<path opacity="0.2" d="M326.61 177.491L329.089 178.707L330.889 175.874L331.211 180.309L333.453 182.696L331.16 184.205L330.753 188.502L329.021 185.021L326.525 185.298L327.747 181.618L326.61 177.491Z" fill="white"/>
<path opacity="0.2" d="M333.877 194.893L335.524 198.496L338.037 198.419L336.73 201.992L337.765 206.181L335.303 204.78L333.419 207.459L333.215 203.024L331.024 200.483L333.351 199.143L333.877 194.893Z" fill="white"/>
<path opacity="0.2" d="M294.772 163.893L332.383 149.139L341.535 206.196L305.521 222.259L294.772 163.893Z" fill="black"/>
<path opacity="0.2" d="M228.414 168.189L261.865 153.436L331.873 148.97L294.755 163.508L228.414 168.189Z" fill="white"/>
<path d="M329.106 211.894L320.089 153.097L251.83 157.455L245.615 160.92L308.085 158.472L320.514 215.375L329.106 211.894Z" fill="#5C7AEA"/>
<path d="M295.842 151.265L264.752 165.356L273.123 223.66L263.24 224.291L251.898 166.372L286.775 151.85L295.842 151.265Z" fill="#5C7AEA"/>
<path opacity="0.2" d="M320.123 153.605L308.102 158.595L320.531 215.575L329.123 212.141L320.123 153.605Z" fill="black"/>
<path opacity="0.1" d="M251.932 166.618L264.769 165.494L273.123 223.66L263.24 224.291L251.932 166.618Z" fill="black"/>
<path d="M275.738 157.163C275.738 157.163 256.194 145.644 248.417 149.34C242.253 152.25 243.764 159.719 260.014 160.597C254.003 161.475 246.923 162.799 242.762 164.555L255.005 165.094C262.177 162.814 269.543 161.068 277.028 159.873C277.429 161.102 277.528 162.395 277.317 163.662L285.569 162.476C285.569 162.476 282.954 160.52 280.832 159.088C290.289 157.625 310.479 153.544 311.905 145.228C313.671 134.432 284.839 143.441 275.738 157.163ZM248.57 151.48C250.268 148.554 274.634 158.164 274.634 158.164C263.75 160.258 246.838 154.452 248.587 151.48H248.57ZM277.877 157.486C277.877 157.486 301.751 139.545 308.101 142.795C314.452 146.044 285.518 157.656 277.894 157.532L277.877 157.486Z" fill="#5C7AEA"/>
<path opacity="0.1" d="M275.738 157.163C275.738 157.163 256.194 145.644 248.417 149.34C242.253 152.25 243.764 159.719 260.014 160.597C254.003 161.475 246.923 162.799 242.762 164.555L255.005 165.094C262.177 162.814 269.543 161.068 277.028 159.873C277.429 161.102 277.528 162.395 277.317 163.662L285.569 162.476C285.569 162.476 282.954 160.52 280.832 159.088C290.289 157.625 310.479 153.544 311.905 145.228C313.671 134.432 284.839 143.441 275.738 157.163ZM248.57 151.48C250.268 148.554 274.634 158.164 274.634 158.164C263.75 160.258 246.838 154.452 248.587 151.48H248.57ZM277.877 157.486C277.877 157.486 301.751 139.545 308.101 142.795C314.452 146.044 285.518 157.656 277.894 157.532L277.877 157.486Z" fill="black"/>
<path d="M314.775 207.182L336.951 198.034L348.633 206.843H387.398L383.034 219.656L346.646 214.866C346.646 214.866 327.628 221.381 324.232 221.304C320.836 221.227 314.775 207.182 314.775 207.182Z" fill="#E4897B"/>
<path d="M427.692 202.701C427.692 203.301 427.573 203.871 427.505 204.456C426.396 213.37 423.898 222.097 420.085 230.374L368.618 222.212L368.058 222.12L368.975 217.762L371.318 206.797L371.997 203.548H373.95L427.692 202.701Z" fill="#5C7AEA"/>
<path d="M368.058 200.822H374.731L368.058 224.214L361.028 222.166L368.058 200.822Z" fill="#5C7AEA"/>
<path opacity="0.7" d="M368.058 200.822H374.731L368.058 224.214L361.028 222.166L368.058 200.822Z" fill="white"/>
<path d="M263.945 4.57277L240.989 0.969183C237.58 0.433916 234.337 2.5069 233.747 5.59933L229.774 26.4186C229.184 29.511 231.469 32.4518 234.879 32.9871L257.834 36.5907C261.244 37.1259 264.486 35.0529 265.077 31.9605L269.05 11.1413C269.64 8.04886 267.354 5.10804 263.945 4.57277Z" fill="#5C7AEA"/>
<path opacity="0.6" d="M260.328 14.0024C258.546 9.93678 253.536 10.599 250.497 13.063C248.595 9.82898 244.096 7.67296 240.903 10.9532C235.521 16.4818 243.077 23.5812 246.744 26.461C247.152 26.7998 247.509 27.0769 247.797 27.2925L249.071 26.8306C253.604 25.229 263.351 20.8554 260.328 14.0024Z" fill="white"/>
<path d="M250.616 32.8981C250.616 32.8981 244.146 41.784 233.194 43.1546C233.194 43.1546 239.511 41.0602 240.971 30.9731L250.616 32.8981Z" fill="#5C7AEA"/>
<path d="M191.479 84.7186L197.761 70.3812C197.761 70.3812 197.201 64.8526 197.761 64.098C198.322 63.3434 213.689 53.9494 213.689 53.9494C213.689 53.9494 216.066 59.093 215.913 61.3876C215.76 63.6822 205.419 69.334 205.419 69.334L199.154 83.3942L191.479 84.7186Z" fill="#B97964"/>
<path d="M203.704 76.8184C203.704 76.8184 183.108 119.353 174.601 123.018C168.776 125.529 148.825 123.018 136.837 121.078C131.319 120.216 127.498 119.538 127.498 119.538L134.799 110.714L140.42 103.922C140.42 103.922 158.928 110.868 166.094 112.084C173.259 113.301 194.535 72.3986 194.535 72.3986L203.704 76.8184Z" fill="#5C7AEA"/>
<path opacity="0.2" d="M136.837 121.063C131.319 120.2 127.498 119.523 127.498 119.523L134.799 110.698C135.891 112.212 136.635 113.911 136.985 115.692C137.335 117.473 137.285 119.3 136.837 121.063V121.063Z" fill="black"/>
<path d="M137.516 38.4262C146.006 42.384 150.829 47.8972 152.102 58.5386C153.376 69.18 146.72 72.5526 152.102 76.8184C157.485 81.0842 154.242 87.5984 150.404 88.4454C146.567 89.2924 153.121 93.5428 153.121 93.5428L150.506 95.2368C150.506 95.2368 151.1 96.9308 146.057 95.2368C141.014 93.5428 143.205 97.3158 135.241 98.1628C127.277 99.0098 112.114 100.257 105.747 93.5428C99.3793 86.8284 101.977 76.6028 98.5303 72.3216C95.0833 68.0404 103.285 45.1406 113.422 40.0894C123.559 35.0382 137.516 38.4262 137.516 38.4262Z" fill="#263238"/>
<path d="M43.481 40.1356L48.9995 25.521C48.9995 25.521 53.3974 21.671 53.4823 20.7624C53.5672 19.8538 48.6939 3.63757 48.6939 3.63757C48.6939 3.63757 43.1924 6.16318 41.6472 7.98038C40.102 9.79758 43.9225 20.208 43.9225 20.208L38.5908 34.5916L43.481 40.1356Z" fill="#B97964"/>
<path d="M86.882 423.288H75.6582L79.0882 409.212L82.2804 396.291L96.3398 394.336L91.3307 409.674L86.882 423.288Z" fill="#B97964"/>
<path opacity="0.2" d="M91.2119 409.982L78.9863 409.489L82.2295 396.43L96.3059 394.413L91.2119 409.982Z" fill="black"/>
<path d="M63.6364 423.288H52.4126L55.8426 409.212L59.0348 396.291L73.0943 394.336L68.0851 409.674L63.6364 423.288Z" fill="#B97964"/>
<path opacity="0.2" d="M67.9833 409.982L55.7407 409.489L58.9839 396.43L73.0603 394.413L67.9833 409.982Z" fill="black"/>
<path d="M43.3114 154.234C43.3114 154.234 42.751 155.328 41.8511 157.314C37.6231 166.785 26.0427 196.692 30.3726 231.373C32.9196 251.886 57.9142 288.815 61.6328 308.927C65.9627 332.335 54.637 373.607 57.5406 403.899L75.4036 405.316L80.7862 402.236L96.0682 400.172C96.0682 400.172 135.92 317.998 135.122 289.585C134.545 267.27 96.0682 187.267 96.0682 187.267L99.7359 157.684" fill="#353535"/>
<path opacity="0.2" d="M83.5878 401.912L80.7861 402.282L76.2015 404.915C79.1221 395.675 104.286 315.765 104.745 298.178C105.237 279.498 75.8789 213.185 75.8789 213.185L83.401 200.865L82.2804 219.607C82.2804 219.607 110.026 271.182 112.216 298.147C114.356 324.065 85.9141 396.091 83.5878 401.912Z" fill="black"/>
<path d="M72.483 422.856C72.483 421.732 87.765 422.61 87.765 422.61C87.765 422.61 97.121 431.234 106.205 433.174C115.29 435.115 110.23 440.074 100.059 440.074H74.9281C67.6777 440.043 72.1944 434.483 72.483 422.856Z" fill="#263238"/>
<path d="M89.429 424.396L89.3101 424.304C89.3024 424.268 89.3024 424.232 89.3101 424.196C89.3008 424.161 89.3008 424.124 89.3101 424.088V424.088C89.2931 424.038 89.2931 423.985 89.3101 423.934C89.3101 423.78 90.6515 420.577 92.7061 419.807C93.0151 419.679 93.351 419.612 93.691 419.612C94.0309 419.612 94.3669 419.679 94.6758 419.807C95.372 420.1 95.6946 420.5 95.6776 420.962C95.6776 421.686 94.54 422.425 93.3004 423.026C94.4447 422.838 95.6244 422.956 96.6964 423.365C96.8927 423.462 97.0658 423.594 97.2057 423.753C97.3456 423.911 97.4495 424.093 97.5114 424.289C97.6367 424.548 97.668 424.837 97.6009 425.114C97.5338 425.39 97.3717 425.641 97.1379 425.829C96.7439 426.071 96.2711 426.185 95.7965 426.152C93.5777 425.906 91.4231 425.312 89.429 424.396V424.396ZM90.8213 424.165C93.0627 425.012 95.9153 425.782 96.5606 425.243C96.5606 425.243 96.8153 425.059 96.6624 424.52C96.6345 424.417 96.582 424.321 96.5087 424.238C96.4353 424.156 96.3429 424.089 96.2379 424.042C95.6764 423.803 95.0571 423.697 94.4381 423.734C93.2193 423.765 92.0073 423.909 90.8213 424.165V424.165ZM92.9269 420.485C91.7278 421.19 90.811 422.227 90.3119 423.442C92.5703 422.672 94.7437 421.594 94.7777 420.978C94.7777 420.777 94.4551 420.608 94.2513 420.516C94.0304 420.414 93.786 420.361 93.5381 420.362C93.3265 420.358 93.1168 420.4 92.9269 420.485V420.485Z" fill="#5C7AEA"/>
<path d="M75.4036 399.957L100.619 396.846L98.4963 405.362L77.6959 407.734L75.4036 399.957Z" fill="#5C7AEA"/>
<path d="M49.2543 422.856C49.2543 421.732 64.5363 422.61 64.5363 422.61C64.5363 422.61 73.8922 431.234 82.9935 433.174C92.0948 435.115 86.8989 440.043 76.7109 440.043H51.5805C44.449 440.043 48.9487 434.483 49.2543 422.856Z" fill="#263238"/>
<path d="M66.1833 424.396L66.0644 424.304C66.0557 424.268 66.0557 424.232 66.0644 424.196C66.0644 424.196 66.0644 424.196 66.0644 424.088C66.0561 424.037 66.0561 423.985 66.0644 423.934C66.0644 423.78 67.4059 420.577 69.4604 419.807C69.7691 419.678 70.1051 419.61 70.4453 419.61C70.7854 419.61 71.1215 419.678 71.4301 419.807C72.1263 420.1 72.4659 420.5 72.432 420.962C72.432 421.686 71.2943 422.425 70.0547 423.026C71.199 422.838 72.3787 422.956 73.4508 423.365C73.652 423.456 73.829 423.586 73.9697 423.746C74.1104 423.905 74.2114 424.09 74.2658 424.289C74.3965 424.547 74.4308 424.837 74.3634 425.115C74.296 425.393 74.1306 425.644 73.8922 425.829C73.4982 426.071 73.0254 426.185 72.5508 426.152C70.332 425.906 68.1774 425.312 66.1833 424.396ZM67.5757 424.165C69.817 425.012 72.6697 425.782 73.3149 425.243C73.3149 425.243 73.5696 425.059 73.4168 424.52C73.3889 424.417 73.3364 424.321 73.263 424.238C73.1897 424.156 73.0973 424.089 72.9923 424.042C72.4307 423.803 71.8114 423.697 71.1924 423.734C69.9737 423.765 68.7616 423.909 67.5757 424.165V424.165ZM69.6812 420.485C68.4868 421.191 67.5757 422.228 67.0832 423.442C69.3246 422.672 71.498 421.594 71.549 420.978C71.549 420.777 71.2094 420.608 71.0056 420.516C70.7847 420.414 70.5403 420.361 70.2925 420.362C70.0808 420.358 69.8712 420.4 69.6812 420.485V420.485Z" fill="#5C7AEA"/>
<path d="M53.856 399.957L80.7862 396.846L78.5279 405.362L56.3181 407.734L53.856 399.957Z" fill="#5C7AEA"/>
<path d="M46.5714 147.581L43.9395 154.45L97.0699 167.186L100.177 159.054L46.5714 147.581Z" fill="black"/>
<path d="M64.7646 150.083L62.1565 149.393L58.2769 161.457L60.8851 162.147L64.7646 150.083Z" fill="#263238"/>
<path d="M87.2979 156.858L75.6367 154.207L73.42 162.229L85.0812 164.88L87.2979 156.858Z" fill="white"/>
<path d="M97.6053 156.9L94.9973 156.21L91.1154 168.273L93.7234 168.963L97.6053 156.9Z" fill="#263238"/>
<path d="M140.42 103.876C138.111 106.602 135.971 109.158 134.002 111.576C126.259 120.97 120.74 127.638 116.529 133.013C111.781 138.797 107.663 144.986 104.236 151.493C102.86 154.126 101.502 157.006 99.9906 160.41L46.5715 147.489C50.9988 132.238 56.3038 117.207 62.4648 102.459C63.9421 99.0098 65.2835 96.0376 66.4721 93.4812C67.6607 90.9248 68.6965 88.8612 69.5625 87.0132C69.5625 86.9208 69.5625 86.8284 69.6983 86.7206C71.0104 84.0628 73.3252 81.9169 76.2263 80.6691C79.1274 79.4213 82.4242 79.1535 85.5237 79.9138C89.3611 80.8532 93.8609 82.039 98.021 83.3172C105.765 85.9193 113.299 89.0067 120.57 92.5572C127.477 95.8939 134.111 99.6767 140.42 103.876V103.876Z" fill="#5C7AEA"/>
<path d="M105.933 102.151C96.951 92.9114 97.7151 86.5204 97.7151 86.5204C109.499 86.1508 113.405 72.3524 113.405 72.3524L123.593 84.1642C121.776 85.4703 120.073 86.9016 118.499 88.4454C111.876 95.0828 115.103 97.824 115.103 97.824C113.88 103.168 105.933 102.151 105.933 102.151Z" fill="#B97964"/>
<path opacity="0.2" d="M123.61 84.1642C121.793 85.4703 120.09 86.9017 118.516 88.4454C113.829 82.501 113.32 72.3524 113.32 72.3524L123.61 84.1642Z" fill="black"/>
<path d="M134.698 40.5822C148.451 43.6622 151.083 51.2698 148.638 64.3444C145.582 80.6838 138.603 91.2174 122.319 83.9948C100.228 74.185 111.86 35.531 134.698 40.5822Z" fill="#B97964"/>
<path d="M139.944 61.6802C140.538 63.7876 141.416 65.8204 142.559 67.7324C142.019 68.1603 141.359 68.4443 140.651 68.553C139.944 68.6617 139.218 68.5909 138.552 68.3484L139.944 61.6802Z" fill="#A24E3F"/>
<path d="M131.794 58.8004C131.556 59.8322 130.741 60.5406 129.977 60.3404C129.213 60.1402 128.805 59.2316 129.06 58.1998C129.315 57.168 130.113 56.4596 130.877 56.6598C131.641 56.86 132.049 57.7686 131.794 58.8004Z" fill="#263238"/>
<path d="M130.555 56.6598L133.238 56.2594C133.238 56.2594 131.54 57.9072 130.555 56.6598Z" fill="#263238"/>
<path d="M145.972 61.3876C145.718 62.4194 144.903 63.1432 144.156 62.9276C143.408 62.712 142.984 61.8188 143.222 60.787C143.459 59.7552 144.291 59.0468 145.055 59.247C145.82 59.4472 146.227 60.3558 145.972 61.3876Z" fill="#263238"/>
<path d="M144.716 59.247L147.399 58.862C147.399 58.862 145.718 60.4944 144.716 59.247Z" fill="#263238"/>
<path d="M127.498 51.2852C127.403 51.2852 127.31 51.2659 127.225 51.2285C127.139 51.1912 127.065 51.1369 127.006 51.0696C126.909 50.9503 126.868 50.8016 126.89 50.6551C126.912 50.5085 126.996 50.3755 127.125 50.2842C128.168 49.6904 129.348 49.3231 130.573 49.2109C131.798 49.0988 133.035 49.2447 134.188 49.6374C134.264 49.6637 134.333 49.7033 134.392 49.7539C134.451 49.8045 134.499 49.8651 134.532 49.9323C134.565 49.9995 134.583 50.072 134.585 50.1456C134.588 50.2192 134.574 50.2924 134.545 50.3612C134.516 50.43 134.472 50.4929 134.416 50.5463C134.361 50.5998 134.294 50.6428 134.22 50.6728C134.146 50.7028 134.066 50.7193 133.985 50.7213C133.903 50.7234 133.823 50.7109 133.747 50.6846C132.79 50.3607 131.764 50.2369 130.747 50.3222C129.73 50.4075 128.747 50.6998 127.872 51.1774C127.765 51.2517 127.633 51.2899 127.498 51.2852V51.2852Z" fill="#263238"/>
<path d="M149.317 54.6424C149.231 54.6428 149.145 54.6265 149.066 54.5946C148.987 54.5628 148.917 54.5161 148.859 54.4576C148.302 53.8134 147.59 53.2928 146.778 52.9352C145.966 52.5777 145.075 52.3926 144.172 52.394C144.092 52.4021 144.011 52.3958 143.933 52.3754C143.856 52.355 143.783 52.321 143.72 52.2752C143.657 52.2294 143.605 52.1728 143.566 52.1087C143.527 52.0445 143.502 51.974 143.493 51.9012C143.484 51.8284 143.491 51.7547 143.514 51.6843C143.536 51.614 143.574 51.5483 143.624 51.4911C143.675 51.4339 143.737 51.3863 143.808 51.351C143.879 51.3156 143.956 51.2933 144.037 51.2852C145.131 51.2652 146.215 51.4727 147.207 51.8918C148.199 52.3109 149.072 52.9305 149.759 53.703C149.818 53.7534 149.865 53.8143 149.897 53.8818C149.93 53.9493 149.946 54.0221 149.946 54.0957C149.946 54.1693 149.93 54.2421 149.897 54.3096C149.865 54.3772 149.818 54.438 149.759 54.4884C149.639 54.5899 149.481 54.6452 149.317 54.6424V54.6424Z" fill="#263238"/>
<path d="M114.067 58.2768C114.067 58.2768 123.236 49.4526 124.391 41.3368C124.391 41.3368 154.361 37.2712 148.961 62.6504C148.961 62.6504 157.604 40.9672 134.103 35.2384C110.603 29.5096 102.283 60.9102 112.029 72.953C111.945 72.9376 108.328 63.8054 114.067 58.2768Z" fill="#263238"/>
<path d="M115.561 61.403C115.821 59.9374 115.432 58.4379 114.477 57.2319C113.523 56.0259 112.082 55.2112 110.467 54.9658C106.086 54.4576 101.977 61.942 112.012 66.1924C113.422 66.7929 114.644 65.638 115.561 61.403Z" fill="#B97964"/>
<path d="M157.213 68.2406C153.63 65.1606 154.191 59.9246 156.975 54.627C159.76 49.3294 152.544 45.387 152.544 45.387C152.544 45.387 151.949 38.7034 146.295 36.0084C145.259 35.5156 140.556 36.0084 140.556 36.0084C134.375 29.8484 124.442 24.7972 116.631 32.8206C112.046 37.5484 107.479 32.6974 100.194 42.5688C94.9304 49.6836 98.5981 55.9668 97.0699 58.2614C90.0062 68.795 99.1924 71.644 101.383 75.3092C101.383 75.3092 106.239 73.1994 105.832 71.952C102.537 61.8496 108.311 55.3046 112.776 56.9216C117.242 58.5386 120.451 58.092 123.694 54.3806C126.938 50.6692 124.679 46.6806 132.184 45.7566C139.69 44.8326 140.437 40.9364 140.437 40.9364C140.565 42.6708 141.206 44.3417 142.294 45.7729C143.382 47.204 144.876 48.3423 146.617 49.0676C152.866 52.0398 150.404 55.628 149.538 60.6946C148.672 65.7612 151.423 67.717 156.33 71.3822C161.237 75.0474 156.041 77.727 156.041 77.727C156.975 77.3009 157.776 76.6703 158.373 75.8923C158.97 75.1143 159.344 74.2136 159.46 73.2716C159.577 72.3297 159.432 71.3763 159.04 70.4978C158.647 69.6193 158.019 68.8435 157.213 68.2406V68.2406Z" fill="#263238"/>
<path d="M137.516 74.0002C136.3 74.9973 135.165 76.073 134.12 77.2188L133.373 76.8184C129.977 74.9858 129.111 73.1224 129.145 71.6286C129.175 70.892 129.402 70.173 129.807 69.5342C130.02 69.1679 130.288 68.8308 130.606 68.5332C132.123 70.4992 134.093 72.1437 136.379 73.3534C137.058 73.7692 137.516 74.0002 137.516 74.0002Z" fill="#263238"/>
<path d="M136.379 73.3534L135.343 74.2774C132.185 72.5526 130.249 70.951 129.807 69.5342C130.02 69.1679 130.288 68.8308 130.605 68.5332C132.123 70.4992 134.093 72.1437 136.379 73.3534V73.3534Z" fill="white"/>
<path d="M133.373 76.8184C129.977 74.9858 129.111 73.1224 129.145 71.6286C130.411 72.3426 131.526 73.2552 132.439 74.3236C133.034 75.0445 133.361 75.9181 133.373 76.8184V76.8184Z" fill="#DE5753"/>
<path d="M102.622 79.575C102.622 79.575 112.233 90.7092 123.61 90.9248C123.61 90.9248 117.955 99.2408 119.738 103.507C119.738 103.507 112.573 110.206 102.758 104.323C92.9439 98.44 91.3308 82.7628 91.3308 82.7628C91.3308 82.7628 98.3775 82.4548 102.622 79.575Z" fill="#5C7AEA"/>
<path d="M82.3144 79.575C82.3144 79.575 61.2422 74.955 46.4696 72.876C31.697 70.797 49.6618 28.7088 49.6618 28.7088L40.6964 24.751C40.6964 24.751 20.0997 65.1452 29.4217 77.7578C34.4647 84.5954 66.523 93.5428 66.523 93.5428L82.3144 79.575Z" fill="#5C7AEA"/>
<path d="M150.489 92.3416C150.489 92.3416 151.627 89.7082 154.938 92.3416C158.249 94.975 159.149 90.8016 161.17 91.1712C163.19 91.5408 163.394 88.3222 168.335 87.2904C173.276 86.2586 173.922 86.2432 174.821 84.2104C175.721 82.1776 179.304 82.1776 179.304 82.1776C179.304 82.1776 175.908 79.344 178.404 76.803C180.9 74.262 178.183 68.5948 178.183 68.5948C178.183 68.5948 182.887 67.3474 184.67 70.3966C186.453 73.4458 186.249 74.262 186.249 74.262C186.249 74.262 186.911 69.334 185.349 68.333C185.349 68.333 192.515 72.4294 189.594 77.2034C188.112 79.8914 185.546 81.9592 182.428 82.9784C182.428 82.9784 180.866 87.968 178.404 88.43C176.221 89.0242 174.225 90.0798 172.58 91.51C170.797 92.7266 171.018 92.665 167.656 93.204C164.294 93.743 163.173 98.1474 161.17 98.1782C159.609 97.9781 158.026 97.9781 156.466 98.1782C154.445 98.6248 153.681 101.905 150.489 100.273C147.297 98.6402 145.633 99.364 144.105 98.1782C142.576 96.9924 135.462 98.6248 135.224 94.5592C134.986 90.4936 146.516 87.8756 150.489 92.3416Z" fill="#263238"/>
<path opacity="0.2" d="M82.2803 92.0028C81.703 92.6958 71.1753 104.923 62.4646 102.49C63.9419 99.0406 65.2833 96.0684 66.4719 93.512C66.5228 93.5428 77.2372 96.284 82.2803 92.0028Z" fill="black"/>
<path opacity="0.2" d="M94.6248 82.4086C94.6248 82.4086 98.1396 95.976 107.445 99.5026C116.75 103.029 118.499 98.8712 118.499 98.8712C118.499 98.8712 117.582 110.775 107.445 106.325C102.542 104.349 98.5665 100.865 96.2207 96.4892C93.875 92.1131 93.3097 87.126 94.6248 82.4086Z" fill="black"/>
<path opacity="0.7" d="M99.0568 143.408L89.9725 135.6L76.2527 138.08L83.3333 127.7L77.5771 117.844L91.0422 119.23L101.213 110.668L102.453 121.894L114.492 126.468L101.791 132.027L99.0568 143.408Z" fill="white"/>
</svg>
