<svg width="31" height="29" viewBox="0 0 31 29" fill="none" xmlns="http://www.w3.org/2000/svg">
<path d="M29.6181 18.1369C27.6097 25.7095 19.4511 30.3171 11.3958 28.4295C3.34051 26.5418 -1.55813 18.8708 0.450258 11.2997C2.45865 3.72861 10.6156 -0.881957 18.6671 1.00567C26.7186 2.89329 31.626 10.5638 29.6181 18.1369Z" fill="#FFBF1C"/>
<path d="M20.4787 18.5071C20.2225 18.2972 19.9376 17.8403 19.624 17.1364L15.7258 8.37886H15.4365L11.497 17.0435C11.1555 17.8059 10.8452 18.3106 10.5662 18.5574C10.4281 18.6813 10.125 18.7817 9.6571 18.8588V19.1461H13.184V18.8603C12.6447 18.8241 12.2936 18.7452 12.1309 18.6237C11.9678 18.5016 11.8873 18.361 11.8873 18.2002C11.8873 17.9993 11.981 17.6939 12.1684 17.2841L12.9296 15.6225L13.1922 15.0478H13.1857L15.1332 10.7934L17.0328 15.0478H17.0105L17.2644 15.6225L17.9413 17.1364C18.1621 17.6283 18.2722 17.9881 18.2719 18.2158C18.2718 18.3003 18.2504 18.3835 18.2095 18.459C18.1685 18.5345 18.1091 18.6002 18.0359 18.6508C17.8793 18.77 17.5781 18.8398 17.1323 18.8603V19.1476H21.5487V18.8603C21.0916 18.8341 20.735 18.7164 20.4787 18.5071Z" fill="white"/>
<path d="M16.5387 17.3016L17.0998 17.7486L19.8508 14.6972L19.2897 14.2502L16.5387 17.3016Z" fill="white"/>
<path d="M15.865 15.9183L16.4261 16.3653L19.1772 13.3134L18.6161 12.8664L15.865 15.9183Z" fill="white"/>
<path d="M15.0817 3.85316C17.8332 3.8558 20.4992 4.73686 22.6283 6.34715C24.7573 7.95745 26.2186 10.198 26.7647 12.6895C27.3108 15.181 26.9082 17.7703 25.625 20.019C24.3417 22.2677 22.2568 24.0375 19.7231 25.0289C16.8122 26.1444 13.5419 26.1508 10.626 25.0465C7.71012 23.9422 5.38549 21.8171 4.15958 19.135C2.93368 16.4528 2.90606 13.4316 4.08276 10.7307C5.25946 8.02984 7.54491 5.86872 10.4402 4.71912C11.9085 4.14474 13.4872 3.8502 15.0817 3.85316ZM15.0817 3.14995C8.07516 3.14995 2.39526 8.39894 2.39526 14.874C2.39526 21.3491 8.07516 26.5981 15.0817 26.5981C22.0882 26.5981 27.7681 21.3516 27.7681 14.872C27.7681 8.39241 22.0882 3.14995 15.0817 3.14995Z" fill="white"/>
</svg>
