<svg width="150" height="36" viewBox="0 0 150 36" fill="none" xmlns="http://www.w3.org/2000/svg">
<path d="M140.25 21.7826C143.48 21.7826 146.75 20.6177 146.75 18.3913C146.75 16.1649 143.48 15 140.25 15C137.019 15 133.75 16.1649 133.75 18.3913C133.75 20.6177 137.019 21.7826 140.25 21.7826Z" fill="#FFC226"/>
<path d="M133.75 21.7826C133.75 24.009 137.019 25.1739 140.25 25.1739C143.48 25.1739 146.75 24.009 146.75 21.7826V20.0869C146.75 22.3133 143.48 23.4782 140.25 23.4782C137.019 23.4782 133.75 22.3133 133.75 20.0869V21.7826Z" fill="#FFC226"/>
<path d="M133.75 25.1739C133.75 27.4003 137.019 28.5652 140.25 28.5652C143.48 28.5652 146.75 27.4003 146.75 25.1739V23.4783C146.75 25.7047 143.48 26.8696 140.25 26.8696C137.019 26.8696 133.75 25.7047 133.75 23.4783V25.1739Z" fill="#FFC226"/>
<path d="M133.75 28.5652C133.75 30.7916 137.019 31.9565 140.25 31.9565C143.48 31.9565 146.75 30.7916 146.75 28.5652V26.8696C146.75 29.096 143.48 30.2609 140.25 30.2609C137.019 30.2609 133.75 29.096 133.75 26.8696V28.5652Z" fill="#FFC226"/>
<path d="M17.736 22.8532C17.88 23.1572 17.952 23.4532 17.952 23.7412C17.952 24.2692 17.736 24.7172 17.304 25.0852C16.888 25.4532 16.408 25.6372 15.864 25.6372C15.496 25.6372 15.16 25.5412 14.856 25.3492C14.552 25.1572 14.312 24.8692 14.136 24.4852L13.056 22.0612H5.28L4.176 24.4852C4 24.8692 3.752 25.1572 3.432 25.3492C3.128 25.5412 2.792 25.6372 2.424 25.6372C1.88 25.6372 1.384 25.4532 0.936 25.0852C0.504 24.7172 0.288 24.2692 0.288 23.7412C0.288 23.4532 0.36 23.1572 0.504 22.8532L6.84 9.84522C7.048 9.41322 7.352 9.08522 7.752 8.86122C8.168 8.62122 8.624 8.50122 9.12 8.50122C9.6 8.50122 10.048 8.62122 10.464 8.86122C10.88 9.08522 11.192 9.41322 11.4 9.84522L17.736 22.8532ZM6.768 18.7492H11.568L9.168 13.3972L6.768 18.7492ZM35.9938 22.8532C36.1378 23.1572 36.2098 23.4532 36.2098 23.7412C36.2098 24.2692 35.9938 24.7172 35.5618 25.0852C35.1458 25.4532 34.6658 25.6372 34.1218 25.6372C33.7538 25.6372 33.4178 25.5412 33.1138 25.3492C32.8098 25.1572 32.5698 24.8692 32.3938 24.4852L31.3138 22.0612H23.5378L22.4338 24.4852C22.2578 24.8692 22.0098 25.1572 21.6898 25.3492C21.3858 25.5412 21.0498 25.6372 20.6818 25.6372C20.1378 25.6372 19.6418 25.4532 19.1938 25.0852C18.7618 24.7172 18.5458 24.2692 18.5458 23.7412C18.5458 23.4532 18.6178 23.1572 18.7618 22.8532L25.0978 9.84522C25.3058 9.41322 25.6098 9.08522 26.0098 8.86122C26.4258 8.62122 26.8818 8.50122 27.3778 8.50122C27.8578 8.50122 28.3058 8.62122 28.7218 8.86122C29.1378 9.08522 29.4498 9.41322 29.6578 9.84522L35.9938 22.8532ZM25.0258 18.7492H29.8258L27.4258 13.3972L25.0258 18.7492ZM40.2356 25.7092C39.5636 25.7092 39.0276 25.5172 38.6276 25.1332C38.2436 24.7332 38.0516 24.1972 38.0516 23.5252V10.6852C38.0516 10.0292 38.2276 9.52522 38.5796 9.17322C38.9316 8.82122 39.4356 8.64522 40.0916 8.64522H46.2356C48.1076 8.64522 49.5636 9.12522 50.6036 10.0852C51.6436 11.0292 52.1636 12.3492 52.1636 14.0452C52.1636 15.7252 51.6356 17.0452 50.5796 18.0052C49.5396 18.9652 48.0916 19.4452 46.2356 19.4452H42.4676V23.5252C42.4676 24.1972 42.2676 24.7332 41.8676 25.1332C41.4676 25.5172 40.9236 25.7092 40.2356 25.7092ZM45.6356 16.1332C46.4516 16.1332 47.0516 15.9652 47.4356 15.6292C47.8356 15.2932 48.0356 14.7732 48.0356 14.0692C48.0356 12.6772 47.2356 11.9812 45.6356 11.9812H42.4676V16.1332H45.6356ZM69.3178 8.52522C69.9258 8.52522 70.4218 8.72521 70.8058 9.12521C71.1898 9.52522 71.3818 10.0452 71.3818 10.6852V23.7412C71.3818 24.3492 71.2058 24.8292 70.8538 25.1812C70.5018 25.5332 70.0378 25.7092 69.4618 25.7092C68.9018 25.7092 68.4378 25.5332 68.0698 25.1812C67.7178 24.8292 67.5418 24.3492 67.5418 23.7412V16.6852L64.8058 21.7252C64.5338 22.2372 64.2458 22.6052 63.9418 22.8292C63.6378 23.0372 63.2778 23.1412 62.8618 23.1412C62.4458 23.1412 62.0858 23.0372 61.7818 22.8292C61.4778 22.6052 61.1898 22.2372 60.9178 21.7252L58.2058 16.8292V23.7412C58.2058 24.3332 58.0218 24.8132 57.6538 25.1812C57.3018 25.5332 56.8378 25.7092 56.2618 25.7092C55.7018 25.7092 55.2378 25.5332 54.8698 25.1812C54.5178 24.8292 54.3418 24.3492 54.3418 23.7412V10.6852C54.3418 10.0452 54.5338 9.52522 54.9178 9.12521C55.3178 8.72521 55.8218 8.52522 56.4298 8.52522C56.8618 8.52522 57.2538 8.65322 57.6058 8.90922C57.9578 9.14922 58.2538 9.50122 58.4938 9.96522L62.9098 18.2692L67.3018 9.96522C67.7978 9.00522 68.4698 8.52522 69.3178 8.52522Z" fill="#5C7AEA"/>
<path d="M83.0977 28.7293H81.9141V8.50272H83.0977V28.7293ZM93.0498 24.6057C93.5332 24.6057 93.9556 24.4593 94.3169 24.1663C94.6782 23.8733 94.8784 23.5071 94.9175 23.0677H96.1992C96.1748 23.5218 96.0186 23.9539 95.7305 24.364C95.4424 24.7742 95.0566 25.1013 94.5732 25.3455C94.0947 25.5896 93.5869 25.7117 93.0498 25.7117C91.9707 25.7117 91.1113 25.3528 90.4717 24.635C89.8369 23.9124 89.5195 22.9261 89.5195 21.6761V21.449C89.5195 20.6775 89.6611 19.9915 89.9443 19.3909C90.2275 18.7903 90.6328 18.324 91.1602 17.992C91.6924 17.6599 92.3198 17.4939 93.0425 17.4939C93.9312 17.4939 94.6685 17.76 95.2544 18.2923C95.8452 18.8245 96.1602 19.5154 96.1992 20.365H94.9175C94.8784 19.8523 94.6831 19.4324 94.3315 19.1053C93.9849 18.7732 93.5552 18.6072 93.0425 18.6072C92.354 18.6072 91.8193 18.8562 91.4385 19.3543C91.0625 19.8474 90.8745 20.5628 90.8745 21.5003V21.7566C90.8745 22.6697 91.0625 23.3728 91.4385 23.866C91.8145 24.3592 92.3516 24.6057 93.0498 24.6057ZM97.3638 21.5296C97.3638 20.7532 97.5151 20.055 97.8179 19.4348C98.1255 18.8147 98.5503 18.3362 99.0923 17.9993C99.6392 17.6624 100.262 17.4939 100.96 17.4939C102.039 17.4939 102.911 17.8675 103.575 18.6145C104.244 19.3616 104.578 20.3553 104.578 21.5955V21.6907C104.578 22.4622 104.429 23.1555 104.131 23.7708C103.838 24.3811 103.416 24.8572 102.864 25.199C102.317 25.5408 101.688 25.7117 100.975 25.7117C99.9004 25.7117 99.0288 25.3382 98.3599 24.5911C97.6958 23.844 97.3638 22.8553 97.3638 21.6248V21.5296ZM98.7261 21.6907C98.7261 22.5696 98.9287 23.2752 99.334 23.8074C99.7441 24.3396 100.291 24.6057 100.975 24.6057C101.663 24.6057 102.21 24.3372 102.615 23.8001C103.021 23.2581 103.223 22.5013 103.223 21.5296C103.223 20.6604 103.016 19.9573 102.601 19.4202C102.19 18.8782 101.644 18.6072 100.96 18.6072C100.291 18.6072 99.7515 18.8733 99.3413 19.4055C98.9312 19.9378 98.7261 20.6995 98.7261 21.6907ZM107.75 25.5652H106.395V17.6404H107.75V25.5652ZM106.285 15.5384C106.285 15.3186 106.351 15.1331 106.482 14.9817C106.619 14.8304 106.819 14.7547 107.083 14.7547C107.347 14.7547 107.547 14.8304 107.684 14.9817C107.82 15.1331 107.889 15.3186 107.889 15.5384C107.889 15.7581 107.82 15.9412 107.684 16.0877C107.547 16.2342 107.347 16.3074 107.083 16.3074C106.819 16.3074 106.619 16.2342 106.482 16.0877C106.351 15.9412 106.285 15.7581 106.285 15.5384ZM111.207 17.6404L111.25 18.6365C111.856 17.8748 112.647 17.4939 113.624 17.4939C115.298 17.4939 116.143 18.4388 116.158 20.3284V25.5652H114.803V20.3211C114.798 19.7498 114.666 19.3274 114.407 19.054C114.153 18.7805 113.755 18.6438 113.213 18.6438C112.774 18.6438 112.388 18.761 112.056 18.9954C111.724 19.2298 111.465 19.5374 111.28 19.9182V25.5652H109.925V17.6404H111.207ZM122.815 23.4632C122.815 23.097 122.676 22.8138 122.398 22.6136C122.125 22.4085 121.644 22.2327 120.955 22.0862C120.271 21.9397 119.727 21.7639 119.322 21.5589C118.921 21.3538 118.624 21.1096 118.428 20.8264C118.238 20.5432 118.143 20.2063 118.143 19.8157C118.143 19.1663 118.416 18.617 118.963 18.1678C119.515 17.7185 120.218 17.4939 121.072 17.4939C121.971 17.4939 122.698 17.7259 123.255 18.1897C123.816 18.6536 124.097 19.2469 124.097 19.9695H122.735C122.735 19.5984 122.576 19.2786 122.259 19.01C121.946 18.7415 121.551 18.6072 121.072 18.6072C120.579 18.6072 120.193 18.7146 119.915 18.9295C119.637 19.1443 119.498 19.4251 119.498 19.7718C119.498 20.0989 119.627 20.3455 119.886 20.5115C120.145 20.6775 120.611 20.8362 121.285 20.9876C121.963 21.1389 122.513 21.3196 122.933 21.5296C123.353 21.7395 123.663 21.9934 123.863 22.2913C124.068 22.5843 124.17 22.9431 124.17 23.368C124.17 24.076 123.887 24.6448 123.321 25.0745C122.754 25.4993 122.02 25.7117 121.116 25.7117C120.481 25.7117 119.92 25.5994 119.432 25.3748C118.943 25.1502 118.56 24.8377 118.282 24.4373C118.008 24.032 117.872 23.595 117.872 23.1263H119.227C119.251 23.5804 119.432 23.9417 119.769 24.2102C120.11 24.4739 120.56 24.6057 121.116 24.6057C121.629 24.6057 122.039 24.5032 122.347 24.2981C122.659 24.0882 122.815 23.8098 122.815 23.4632Z" fill="#353535"/>
<g clip-path="url(#clip0_154_10)">
<path d="M128.992 6.92184C125.495 8.26789 122.357 10.7659 123.124 12.9348C123.89 15.1037 127.832 14.876 131.328 13.5299C134.825 12.1836 137.963 9.68591 137.196 7.51699C136.429 5.34807 132.489 5.57552 128.992 6.92184ZM128.053 15.5731L128.832 17.7758C129.78 17.6602 130.79 17.424 131.787 17.0894L131.008 14.8867C130.047 15.2132 129.057 15.4431 128.053 15.5731ZM132.415 14.3442L133.194 16.5469C134.129 16.1441 135.025 15.6482 135.868 15.0661L135.09 12.8635C134.246 13.4455 133.35 13.9414 132.415 14.3442ZM136.331 11.8518L137.11 14.0545C138.181 13.0122 138.738 11.8783 138.365 10.821L137.586 8.61834C137.96 9.67563 137.402 10.8095 136.331 11.8518ZM127.259 17.8469L126.48 15.6442C125.017 15.5775 123.887 15.0927 123.513 14.0361L124.292 16.2388C124.665 17.2954 125.796 17.7802 127.259 17.8469Z" fill="#FFC226"/>
</g>
<defs>
<clipPath id="clip0_154_10">
<path d="M121.75 13.5724C120.369 9.66715 122.384 5.29493 126.249 3.80675L136.137 -2.17811e-06L142.368 17.6215L125.48 24.1229L121.75 13.5724Z" fill="white"/>
</clipPath>
</defs>
</svg>
