<svg width="30" height="30" viewBox="0 0 30 30" fill="none" xmlns="http://www.w3.org/2000/svg">
<path d="M29.7405 28.1718L22.4484 20.9577C24.4045 18.7329 25.5888 15.8302 25.5888 12.6575C25.5888 5.67385 19.847 0 12.7944 0C5.7352 0 0 5.68043 0 12.6575C0 19.6347 5.74185 25.3151 12.7944 25.3151C16.0013 25.3151 18.9355 24.1435 21.1843 22.2083L28.4764 29.4224C28.6494 29.5935 28.8822 29.6857 29.1085 29.6857C29.3347 29.6857 29.5675 29.6001 29.7405 29.4224C30.0865 29.0801 30.0865 28.514 29.7405 28.1718ZM1.78975 12.6575C1.78975 6.65459 6.72655 1.77719 12.7878 1.77719C18.8556 1.77719 23.7858 6.66118 23.7858 12.6575C23.7858 18.6539 18.8556 23.5445 12.7878 23.5445C6.72655 23.5445 1.78975 18.6605 1.78975 12.6575Z" fill="#B8B6B6"/>
</svg>
